<svg width="701" height="660" viewBox="0 0 701 660" fill="none" xmlns="http://www.w3.org/2000/svg">
<path d="M281.915 571.839C292.739 576.726 304.549 579.04 316.418 578.598C328.287 578.155 339.892 574.97 350.322 569.291C372.272 557.104 387.279 534.552 409.844 523.547C435.447 511.012 465.574 515.609 494.067 515.255C522.559 514.9 555.461 505.775 566.088 479.361C575.083 457.043 564.396 430.78 572.087 407.986C578.528 389.101 595.928 376.637 609.434 361.959C631.83 337.596 644.438 303.462 639.326 270.779C634.214 238.096 609.915 208.187 577.842 199.981C542.983 191.076 504.415 207.115 470.82 194.25C448.209 185.576 432.252 165.38 411.844 152.358C377.499 130.454 329.933 131.543 296.625 154.997C279.595 166.983 266.394 183.981 248.685 194.936C202.887 223.355 139.347 205.046 92.8196 232.32C55.7937 253.981 39.1662 304.58 56.0088 344.029C68.3561 372.886 95.2763 393.863 106.302 423.232C115.616 447.891 112.592 475.221 115.368 501.454C118.143 527.687 130.148 556.529 155.274 564.508C171.856 569.767 189.648 564.502 206.904 562.339C233.968 558.948 257.266 560.074 281.865 571.839" fill="#ECECEC"/>
<g opacity="0.4">
<path opacity="0.4" d="M30.5289 340.788C30.4812 352.02 32.6274 363.154 36.8472 373.563C41.1235 383.817 47.8856 392.903 56.6454 398.614C58.7817 400.03 61.0397 401.253 63.3927 402.269C65.7052 403.224 68.1032 403.957 70.5544 404.459C75.3315 405.444 80.252 405.514 85.0553 404.666C94.5845 403.024 103.374 398.303 111.157 392.089C111.63 391.689 112.163 391.29 112.637 390.92L113.732 389.869C114.442 389.129 115.211 388.389 115.833 387.605C117.253 385.988 118.544 384.261 119.695 382.441C122.212 378.507 124.367 374.351 126.131 370.027C129.971 360.484 133.121 350.678 135.557 340.684C140.839 319.969 145.042 298.025 150.043 275.741C151.286 270.158 152.613 264.555 154.023 258.932C155.385 253.294 156.894 247.642 158.463 241.945C161.652 230.096 165.748 218.511 170.714 207.291C172.076 204.331 173.57 201.372 175.346 198.309C176.219 196.829 177.21 195.246 178.305 193.737C179.4 192.228 180.465 190.777 181.634 189.46C186.11 184.253 191.296 179.701 197.038 175.936C207.899 168.641 219.056 164.099 229.769 159.482C240.482 154.865 251.046 150.604 261.034 145.499C270.922 140.538 280.219 134.477 288.749 127.432C297.001 120.517 304.038 112.27 309.568 103.032C315.013 93.8728 318.979 83.8849 320.118 74.1634C320.74 69.5281 320.675 64.8264 319.926 60.21C319.213 56.0824 317.705 52.1326 315.487 48.5796C313.501 45.4391 310.888 42.742 307.813 40.6569C304.737 38.5717 301.265 37.1433 297.612 36.461C293.884 35.7327 290.066 35.583 286.293 36.0171C282.241 36.5188 278.266 37.5125 274.455 38.9765C273.464 39.3464 272.487 39.7607 271.496 40.175L268.004 41.6547C265.695 42.6905 263.402 43.7706 261.167 44.9248C256.728 47.2183 252.289 49.6894 247.984 52.4564C239.357 57.9164 230.878 64.5306 221.438 71.6923C211.539 79.3093 201.094 86.1886 190.187 92.2747C178.817 98.3497 166.89 103.32 154.571 107.116C153.091 107.619 151.523 108.019 149.999 108.463L145.9 109.631C143.636 110.297 141.343 111.022 139.064 111.807C134.521 113.405 130.023 115.225 125.643 117.252C108.138 125.42 92.8385 136.872 81.948 151.758C76.3151 159.348 71.6572 167.615 68.0833 176.365C66.1607 180.942 64.5346 185.637 63.2152 190.422C61.796 195.379 60.6402 200.407 59.7527 205.485C58.8649 210.65 58.1694 215.947 57.7403 221.333C57.5184 223.863 57.3556 227.163 57.1485 230.211C56.9413 233.259 56.6306 236.293 56.2754 239.311C54.8609 251.247 52.6112 263.069 49.5429 274.69C46.5835 286.188 42.9139 297.315 39.1851 308.25C37.3059 313.725 35.4267 319.155 33.7546 324.526C31.954 329.777 30.869 335.247 30.5289 340.788V340.788ZM26.0898 340.788C26.1054 337.762 26.4127 334.744 27.0073 331.777C27.5251 328.817 28.2058 326.021 28.8717 323.209C30.2034 317.572 31.6387 312.008 32.8224 306.415C34.0062 300.822 35.0567 295.243 35.7818 289.635C36.5068 284.027 36.9803 278.404 37.2615 272.796C37.6622 261.68 36.9484 250.552 35.1307 239.577C34.7164 236.855 34.1837 234.162 33.651 231.484C33.1184 228.805 32.4821 226.319 31.8606 223.138C30.596 217.009 29.6723 210.814 29.0936 204.583C27.8379 191.631 28.4408 178.567 30.884 165.786C33.484 152.427 38.3482 139.611 45.2666 127.891C52.3542 116.136 61.2246 105.553 71.5606 96.5214C81.6934 87.6485 92.9766 80.1828 105.105 74.3262C111.072 71.4012 117.221 68.8608 123.512 66.7206C126.649 65.6108 129.845 64.649 133.101 63.7612L141.002 61.6452C150.704 58.9991 160.164 55.5341 169.279 51.2874C178.737 46.7739 187.869 41.6072 196.609 35.8247C206.005 29.906 216.17 22.9959 227.445 17.0031C233.102 13.9603 238.915 11.2191 244.861 8.79087C247.821 7.56273 250.78 6.45297 253.887 5.3876L258.445 3.90791C260.176 3.39002 261.922 2.88693 263.683 2.42822C270.902 0.593784 278.345 -0.20829 285.789 0.0459292C293.518 0.291048 301.144 1.88342 308.325 4.75133C315.655 7.69973 322.313 12.0985 327.901 17.6838C333.42 23.1925 337.698 29.8163 340.449 37.1121C343.034 44.0114 344.304 51.3338 344.193 58.7007C344.115 65.5625 343.039 72.3765 340.997 78.928C337.037 91.0154 331.004 102.321 323.166 112.339C319.446 117.226 315.397 121.853 311.048 126.189C306.723 130.447 302.152 134.449 297.361 138.175C278.287 152.971 256.625 162.797 237.049 174.235C227.283 179.887 217.975 186.072 210.917 193.204C207.61 196.532 204.799 200.32 202.572 204.45C202.069 205.436 201.61 206.423 201.196 207.409C200.796 208.371 200.426 209.347 200.056 210.368C199.331 212.499 198.666 214.808 198.059 217.264C196.86 222.132 195.928 227.385 195.1 232.741C194.271 238.098 193.531 243.587 192.776 249.121L190.586 265.901C189.847 271.539 189.107 277.221 188.219 282.932C184.727 305.719 180.288 328.965 171.942 352.108C167.74 364.136 162.127 375.625 155.222 386.333C153.343 389.085 151.39 391.808 149.214 394.471C147.035 397.199 144.672 399.775 142.142 402.18C139.534 404.698 136.733 407.008 133.767 409.09C132.252 410.161 130.682 411.148 129.061 412.05L126.575 413.381C125.776 413.796 125.096 414.092 124.311 414.447C118.304 417.236 112.014 419.369 105.549 420.809C98.9715 422.263 92.2189 422.762 85.4992 422.289C78.8173 421.813 72.2687 420.181 66.1449 417.465C63.1539 416.137 60.291 414.537 57.5924 412.686C54.9656 410.89 52.4911 408.881 50.1939 406.678C41.5044 398.02 35.094 387.344 31.5351 375.605C28.0301 364.368 26.1954 352.677 26.0898 340.906V340.788Z" fill="#ECECEC"/>
<path opacity="0.4" d="M216.822 390.283C222.944 378.602 227.496 366.164 230.361 353.291C233.454 340.462 235.422 327.367 237.345 314.123C238.366 307.509 239.284 300.806 240.497 294.103C241.63 287.209 243.162 280.386 245.084 273.669C247.123 266.428 250.056 259.469 253.814 252.953C258.162 245.524 264.13 239.171 271.274 234.368C273.183 233.111 275.24 232.06 277.193 230.935C279.146 229.811 281.425 229.101 283.585 228.257C285.746 227.414 288.024 226.925 290.185 226.363C292.345 225.801 294.624 225.549 296.828 225.179C305.328 224.05 313.946 224.165 322.412 225.52C330.716 226.843 338.826 229.178 346.561 232.474C353.806 235.606 360.78 239.333 367.41 243.616C379.448 251.59 390.891 260.427 401.649 270.058L416.801 283.375C419.272 285.551 421.773 287.622 424.2 289.709L427.884 292.801L431.569 295.76C436.357 299.595 441.335 303.185 446.484 306.518C451.351 309.699 456.479 312.461 461.814 314.774C467.483 317.089 473.346 318.901 479.333 320.19C485.577 321.67 492.088 322.765 498.761 323.741C512.078 325.709 525.987 326.952 540.059 328.58L550.639 329.897C554.205 330.415 557.742 330.947 561.322 331.598C568.589 332.814 575.752 334.585 582.748 336.896C590.068 339.262 596.961 342.783 603.168 347.328C609.442 352.033 614.563 358.106 618.142 365.084C619.852 368.454 621.23 371.982 622.256 375.619L623.588 380.99C623.957 382.766 624.194 384.482 624.505 386.243C625.549 393.28 625.95 400.397 625.703 407.506C625.347 414.664 624.296 421.77 622.567 428.725C622.093 430.456 621.738 432.232 621.176 433.934L619.518 439.068C618.246 442.427 616.959 445.801 615.434 449.056C609.328 462.18 601.304 474.322 591.626 485.086C586.862 490.519 581.783 495.667 576.415 500.505C571.118 505.432 565.465 509.915 559.724 514.28C556.765 516.382 553.924 518.586 550.92 520.569L546.481 523.617L541.938 526.577C535.832 530.404 529.598 534.005 523.235 537.378C520.054 539.05 516.843 540.663 513.632 542.291C510.421 543.919 507.136 545.369 503.866 546.834C500.596 548.298 497.311 549.793 493.982 551.11C490.653 552.427 487.353 553.832 483.979 555.061L464.743 562.252C461.606 563.421 458.529 564.679 455.436 565.892L450.79 567.727L446.188 569.635C421.769 579.724 397.991 591.297 374.985 604.29C363.429 610.815 351.976 617.607 339.547 624.473C333.347 627.95 326.777 631.324 319.586 634.535C311.967 637.968 304.04 640.673 295.911 642.614C287.185 644.649 278.233 645.549 269.277 645.292C260.758 645.03 252.291 643.864 244.019 641.815C239.994 640.942 236.25 639.773 232.447 638.663C230.568 638.071 228.763 637.42 226.928 636.813C225.093 636.207 223.288 635.585 221.394 634.801L215.801 632.552L213.019 631.398L210.252 630.051C206.51 628.315 202.869 626.369 199.347 624.221C197.571 623.126 195.796 622.061 194.035 620.921L188.915 617.148L186.4 615.239C185.556 614.588 184.787 613.834 183.973 613.123L179.238 608.803C177.758 607.323 176.278 605.607 174.888 604.023L172.757 601.597C172.076 600.768 171.47 599.88 170.818 599.007C169.561 597.261 168.288 595.53 167.075 593.769C165.862 592.008 164.929 590.07 163.894 588.206C159.996 580.901 157.228 573.049 155.681 564.915L155.075 561.956C154.912 560.965 154.808 559.988 154.69 558.997C154.453 557.043 154.202 555.09 154.039 553.078C153.822 549.259 153.798 545.432 153.965 541.61C154.299 534.252 155.26 526.936 156.835 519.74C158.382 512.82 160.319 505.993 162.636 499.291C167.204 486.309 172.576 473.623 178.72 461.308C180.2 458.274 181.679 455.197 183.277 452.208C184.875 449.219 186.237 446.171 187.909 443.196C189.581 440.222 191.075 437.278 192.673 434.318L197.453 425.44L216.822 390.283ZM220.758 392.295C214.425 404.014 208.536 415.97 203.298 428.178L201.344 432.75L199.51 437.366C198.252 440.429 197.142 443.551 196.017 446.659C193.724 452.859 191.741 459.162 189.906 465.48C186.25 477.957 183.735 490.74 182.39 503.671C181.736 509.928 181.454 516.218 181.546 522.508C181.679 528.526 182.297 534.523 183.396 540.441C183.795 543.401 184.698 546.079 185.349 548.831L186.695 552.782C186.932 553.433 187.125 554.084 187.361 554.72L188.205 556.585C190.211 561.371 192.875 565.853 196.121 569.902C196.935 570.878 197.749 571.825 198.503 572.861L201.167 575.525C201.611 575.969 202.025 576.442 202.484 576.856L203.963 578.055C204.955 578.839 205.872 579.683 206.923 580.452L210.104 582.642C210.637 583.012 211.125 583.411 211.687 583.737L213.419 584.728L216.837 586.726L220.521 588.487C225.627 590.908 230.904 592.95 236.309 594.598C237.641 595.071 239.136 595.471 240.615 595.87C242.095 596.27 243.575 596.714 245.054 597.069C247.94 597.705 250.84 598.475 253.622 598.904C258.866 599.93 264.2 600.426 269.543 600.383C274.426 600.31 279.284 599.659 284.014 598.445C293.588 596.003 304.271 590.795 315.857 584.595C321.643 581.532 327.547 578.277 333.613 574.977C339.68 571.677 345.88 568.467 352.11 565.241C377.392 552.348 403.554 541.258 430.4 532.051L435.342 530.305L440.388 528.648C443.747 527.553 447.105 526.414 450.479 525.378L470.233 519.356C476.522 517.417 482.751 515.361 488.951 513.245L498.169 509.915C501.217 508.746 504.266 507.592 507.299 506.394C513.292 503.908 519.344 501.466 525.174 498.685L529.613 496.643L533.948 494.497C536.908 493.106 539.645 491.538 542.501 490.058C553.702 483.985 564.287 476.839 574.107 468.721C578.9 464.686 583.404 460.32 587.587 455.655C591.75 451.085 595.471 446.131 598.699 440.858C605.234 430.396 609.373 418.617 610.818 406.367C611.461 400.202 611.432 393.985 610.729 387.826C610.507 386.347 610.359 384.719 610.093 383.21L609.175 378.771C608.41 375.948 607.379 373.203 606.098 370.573C603.546 365.37 599.743 360.881 595.03 357.508C589.998 354.018 584.387 351.447 578.457 349.917C572.154 348.266 565.717 347.176 559.221 346.662C552.622 346.114 545.904 345.922 539.097 345.981C525.514 346.055 511.664 346.898 497.385 347.194C490.223 347.298 482.943 347.194 475.456 346.75C467.687 346.315 459.97 345.216 452.388 343.466C436.244 339.515 422.335 332.279 409.743 324.23C384.737 308.042 365.042 288.717 345.037 274.497C335.078 267.41 325.224 261.757 315.073 258.65C309.97 257.085 304.69 256.17 299.359 255.927C294.515 255.498 289.638 256.211 285.12 258.01C280.602 259.809 276.569 262.644 273.346 266.285C269.325 270.641 265.879 275.495 263.092 280.727C260.067 286.324 257.365 292.09 254.998 297.995C252.615 304.076 250.352 310.306 248.295 316.609C244.063 329.216 240.349 342.104 236.102 354.844C232.077 367.743 226.953 380.272 220.787 392.295H220.758Z" fill="#ECECEC"/>
<path opacity="0.4" d="M628.766 89.1797C626.907 93.1635 624.776 97.0148 622.389 100.706C621.294 102.482 620.14 104.154 618.985 105.841C617.831 107.528 616.618 109.111 615.405 110.665C613.008 113.831 610.492 116.746 608.006 119.661C597.856 131.129 586.802 140.969 575.971 150.735L572.139 154.212L570.452 155.692L568.809 157.423C567.7 158.533 566.723 159.805 565.687 161.018C564.651 162.232 563.734 163.623 562.728 164.984C561.722 166.345 560.863 167.736 560.005 169.216C559.147 170.696 558.274 172.175 557.46 173.655C555.877 176.614 554.264 179.825 552.858 183.051C546.94 195.983 542.5 209.878 535.679 223.802C532.106 231.211 527.376 238.004 521.666 243.925C518.543 247.058 515.067 249.818 511.309 252.152C509.395 253.324 507.419 254.391 505.39 255.348C504.369 255.822 503.348 256.325 502.312 256.739L499.175 257.908C495.005 259.35 490.717 260.43 486.361 261.134C484.171 261.534 481.804 261.652 479.481 261.859C477.158 262.066 474.894 261.859 472.571 261.859C470.247 261.859 468.131 261.46 465.779 261.208C464.67 261.076 463.569 260.888 462.479 260.646L459.194 259.98L457.552 259.625L455.968 259.166L452.802 258.219C450.708 257.618 448.653 256.892 446.646 256.044C438.796 252.907 431.373 248.79 424.555 243.792C417.984 238.92 411.921 233.397 406.458 227.308C401.133 221.273 396.434 214.714 392.431 207.732C391.439 205.986 390.492 204.225 389.56 202.479C388.628 200.733 387.844 198.854 387 197.049C386.157 195.244 385.387 193.409 384.677 191.544C383.967 189.68 383.197 187.86 382.606 185.936C380.056 178.435 378.116 170.741 376.805 162.927C375.475 155.253 374.762 147.484 374.675 139.696C374.529 132.088 375.103 124.483 376.391 116.983C377.664 109.577 380.017 102.398 383.375 95.6756C386.923 88.8603 391.985 82.9482 398.172 78.3928C404.474 73.8795 411.364 70.2502 418.651 67.6059C433.198 62.3433 448.246 58.585 463.559 56.3899C471.12 55.2358 478.637 54.4663 486.08 53.9928C486.802 53.9604 487.52 53.8664 488.226 53.7117L489.957 53.4009C491.141 53.0458 492.265 52.9422 493.434 52.5279L495.151 52.0396C495.728 51.8325 496.305 51.5957 496.882 51.433C498.036 51.1222 499.249 50.5156 500.418 50.1456C505.757 47.9692 510.956 45.4637 515.985 42.6436L524.759 37.7163L529.45 35.0676L534.481 32.419C537.825 30.5842 541.568 28.8234 545.415 27.0773C549.593 25.2524 553.883 23.6956 558.259 22.4163C563.195 20.9712 568.268 20.0488 573.396 19.6641C578.995 19.2356 584.625 19.5741 590.132 20.6703L592.233 21.0698L594.275 21.6173C595.621 22.002 596.997 22.3719 598.344 22.801C600.928 23.7099 603.453 24.7773 605.905 25.9972L609.471 27.8468L612.741 29.8739C614.855 31.2449 616.895 32.7266 618.852 34.313C619.37 34.6977 619.77 34.9936 620.332 35.4819C620.894 35.9702 621.812 36.7841 622.566 37.4647C624.104 38.8507 625.515 40.3709 626.783 42.0074C627.094 42.4069 627.434 42.8212 627.745 43.2503L628.648 44.6264C629.225 45.5586 629.772 46.476 630.32 47.423C631.3 49.3308 632.136 51.3093 632.82 53.3418C633.116 54.3479 633.383 55.3393 633.634 56.3011C633.768 56.8042 633.886 57.3221 633.975 57.7808L634.211 59.2605C634.345 60.2075 634.448 61.1693 634.552 62.1311C634.655 63.0929 634.626 63.9215 634.655 64.8241C634.685 65.7267 634.655 66.6145 634.655 67.4727L634.448 69.8994C634.359 70.6837 634.3 71.5419 634.167 72.2817L633.738 74.5604C632.653 79.6099 630.985 84.5159 628.766 89.1797V89.1797Z" fill="#ECECEC"/>
<path opacity="0.4" d="M140.706 480.517C141.435 484.747 141.738 489.04 141.609 493.331C141.284 501.156 139.941 508.906 137.614 516.385C135.601 523.677 133.034 530.805 129.934 537.707C126.784 544.64 122.81 551.168 118.097 557.15C113.172 563.372 107.439 568.911 101.051 573.619C93.8892 578.636 85.6562 581.914 77.0058 583.192C72.4203 583.878 67.7656 583.973 63.156 583.473C58.7034 582.976 54.3526 581.804 50.2531 579.996C46.6165 578.362 43.213 576.253 40.1321 573.722C37.3758 571.417 34.7618 568.946 32.3045 566.324C31.0326 564.951 29.8885 563.465 28.8865 561.885C27.9432 560.227 27.1366 558.495 26.4746 556.706C25.2332 553.01 24.3706 549.197 23.8999 545.327C22.797 537.281 22.7075 529.129 23.6336 521.06C24.5132 513.313 27.0355 505.842 31.032 499.146C34.8989 492.8 40.0011 487.295 46.036 482.958C52.2647 478.733 58.9695 475.257 66.0118 472.601C73.0255 469.819 79.8172 467.2 86.2687 464.152C92.7201 461.103 98.9644 457.715 106.822 455.274C108.919 454.61 111.074 454.144 113.258 453.883C115.805 453.54 118.388 453.58 120.923 454.001C124.324 454.657 127.496 456.187 130.127 458.44C130.78 459.013 131.403 459.62 131.991 460.26C132.538 460.882 133.086 461.518 133.604 462.184C134.512 463.414 135.328 464.71 136.045 466.06C136.71 467.298 137.303 468.572 137.821 469.878C138.265 471.062 138.768 472.364 139.079 473.503L139.597 475.294L140.026 477.025C140.307 478.283 140.499 479.378 140.706 480.517Z" fill="#ECECEC"/>
</g>
<g opacity="0.4">
<path opacity="0.4" d="M558.673 232.119C593.461 205.1 628.455 210.353 628.455 210.353C628.455 210.353 628.618 245.747 596.864 276.273C570.067 302.034 544.631 300.57 535.857 290.449C527.082 280.327 529.316 254.906 558.673 232.119Z" fill="#ECECEC"/>
<path opacity="0.4" d="M554.811 249.597C576.859 232.462 599.039 235.807 599.039 235.807C599.039 235.807 599.143 258.224 579.019 277.593C562.032 293.869 545.889 292.996 540.34 286.575C534.791 280.153 536.197 264.039 554.811 249.597Z" fill="#ECECEC"/>
</g>
<path d="M635 388.524L661.978 393.482L668 422L674.022 393.482L701 388.475L674.12 381.898L668 355L661.831 381.898L635 388.524Z" fill="#CFFFEB"/>
<path d="M499 617.524L525.978 622.482L532 651L538.022 622.482L565 617.475L538.12 610.898L532 584L525.831 610.898L499 617.524Z" fill="#CFFFEB"/>
<path d="M140 509.986L155.124 512.826L158.5 529L161.876 512.826L177 509.986L161.958 506.256L158.5 491L155.069 506.256L140 509.986Z" fill="#7E40D6"/>
<path d="M312 481.986L327.124 484.826L330.5 501L333.876 484.826L349 481.986L333.958 478.256L330.5 463L327.069 478.256L312 481.986Z" fill="#7E40D6"/>
<path d="M513 533.01L523.628 534.952L526 546L528.372 534.952L539 533.01L528.43 530.438L526 520L523.589 530.438L513 533.01Z" fill="#CFFFEB"/>
<path d="M23 193.518L34.0438 195.535L36.5179 207L38.9562 195.535L50 193.518L39.0279 190.864L36.5179 180L34.008 190.864L23 193.518Z" fill="#7E40D6"/>
<path d="M594 425.976L609.114 428.666L612.5 444L615.886 428.666L631 425.976L615.935 422.438L612.5 408L609.065 422.438L594 425.976Z" fill="#CFFFEB"/>
<path d="M206 104.976L221.114 107.666L224.5 123L227.886 107.666L243 104.976L227.935 101.438L224.5 87L221.065 101.438L206 104.976Z" fill="#CFFFEB"/>
<path d="M0 319.5L14.7055 322.261L18 338L21.2945 322.261L36 319.5L21.3422 315.868L18 301L14.6579 315.868L0 319.5Z" fill="#CFFFEB"/>
<path d="M461 574C461.824 574.078 462.586 574.428 463.14 574.982C463.694 575.536 464 576.255 464 577C464 577.745 463.694 578.464 463.14 579.018C462.586 579.572 461.824 579.922 461 580C460.176 579.922 459.414 579.572 458.86 579.018C458.306 578.464 458 577.745 458 577C458 576.255 458.306 575.536 458.86 574.982C459.414 574.428 460.176 574.078 461 574V574Z" fill="#CFFFEB"/>
<path d="M594 83C595.326 83 596.598 83.5266 597.535 84.4643C598.473 85.402 599 86.6738 599 87.9999C599 89.326 598.473 90.5978 597.535 91.5355C596.598 92.4732 595.326 93 594 93C592.674 93 591.402 92.4732 590.465 91.5355C589.527 90.5978 589 89.326 589 87.9999C589 86.6738 589.527 85.402 590.465 84.4643C591.402 83.5266 592.674 83 594 83Z" fill="#CFFFEB"/>
<path d="M596.5 301C597.163 301 597.799 301.263 598.268 301.732C598.737 302.201 599 302.837 599 303.5C599 304.163 598.737 304.799 598.268 305.268C597.799 305.737 597.163 306 596.5 306C595.837 306 595.201 305.737 594.732 305.268C594.263 304.799 594 304.163 594 303.5C594 302.837 594.263 302.201 594.732 301.732C595.201 301.263 595.837 301 596.5 301V301Z" fill="#CFFFEB"/>
<path d="M85.5 484C86.4283 484 87.3186 484.369 87.975 485.025C88.6313 485.681 89 486.572 89 487.5C89 488.428 88.6313 489.318 87.975 489.975C87.3186 490.631 86.4283 491 85.5 491C84.5717 491 83.6816 490.631 83.0252 489.975C82.3688 489.318 82 488.428 82 487.5C82 486.572 82.3688 485.681 83.0252 485.025C83.6816 484.369 84.5717 484 85.5 484V484Z" fill="#CFFFEB"/>
<path d="M543.5 435C544.693 435 545.838 435.474 546.682 436.318C547.526 437.162 548 438.306 548 439.5C548 440.693 547.526 441.838 546.682 442.682C545.838 443.526 544.693 444 543.5 444C542.307 444 541.162 443.526 540.318 442.682C539.474 441.838 539 440.693 539 439.5C539 438.306 539.474 437.162 540.318 436.318C541.162 435.474 542.307 435 543.5 435V435Z" fill="#CFFFEB"/>
<path d="M114.5 181C115.735 181.118 116.879 181.642 117.709 182.473C118.54 183.304 119 184.382 119 185.5C119 186.618 118.54 187.696 117.709 188.527C116.879 189.358 115.735 189.882 114.5 190C113.265 189.882 112.121 189.358 111.291 188.527C110.46 187.696 110 186.618 110 185.5C110 184.382 110.46 183.304 111.291 182.473C112.121 181.642 113.265 181.118 114.5 181V181Z" fill="#7E40D6"/>
<path d="M453 487C454.098 487.105 455.114 487.571 455.853 488.31C456.591 489.048 457 490.007 457 491C457 491.993 456.591 492.952 455.853 493.69C455.114 494.429 454.098 494.895 453 495C451.902 494.895 450.886 494.429 450.147 493.69C449.409 492.952 449 491.993 449 491C449 490.007 449.409 489.048 450.147 488.31C450.886 487.571 451.902 487.105 453 487V487Z" fill="#CFFFEB"/>
<path d="M638.5 500C639.428 500 640.319 500.316 640.975 500.879C641.631 501.441 642 502.204 642 503C642 503.796 641.631 504.559 640.975 505.121C640.319 505.684 639.428 506 638.5 506C637.572 506 636.681 505.684 636.025 505.121C635.369 504.559 635 503.796 635 503C635 502.204 635.369 501.441 636.025 500.879C636.681 500.316 637.572 500 638.5 500V500Z" fill="#CFFFEB"/>
<path d="M109 319.014L117.59 320.658L119.486 330L121.41 320.658L130 319.014L121.466 316.852L119.486 308L117.534 316.852L109 319.014Z" fill="#7E40D6"/>
<path d="M54.5 426C55.6935 426 56.8381 426.474 57.682 427.318C58.5259 428.162 59 429.306 59 430.5C59 431.693 58.5259 432.838 57.682 433.682C56.8381 434.526 55.6935 435 54.5 435C53.3065 435 52.1619 434.526 51.318 433.682C50.4741 432.838 50 431.693 50 430.5C50 429.306 50.4741 428.162 51.318 427.318C52.1619 426.474 53.3065 426 54.5 426V426Z" fill="#7E40D6"/>
<path d="M131.568 100.408C146.157 94.5665 153.249 78.0046 147.408 63.4156C141.567 48.8266 125.005 41.735 110.416 47.5761C95.8268 53.4172 88.7351 69.9791 94.5763 84.5681C100.417 99.1571 116.979 106.249 131.568 100.408Z" fill="#7E40D6"/>
<g opacity="0.1">
<path opacity="0.1" d="M119.484 97.2565C119.987 96.0876 121.763 95.7768 123.45 96.4871C125.136 97.1973 126.098 98.751 125.595 99.9052C125.092 101.059 123.302 101.385 121.63 100.675C119.957 99.9644 118.981 98.4107 119.484 97.2565Z" fill="#7E40D6"/>
<path opacity="0.1" d="M127.548 95.2586C127.83 94.6076 128.88 94.43 129.886 94.8739C130.892 95.3178 131.484 96.2056 131.203 96.8567C130.922 97.5078 129.871 97.6705 128.851 97.2414C127.83 96.8123 127.282 95.8801 127.548 95.2586Z" fill="#7E40D6"/>
<path opacity="0.1" d="M105.471 60.2772C105.9 59.2858 107.439 59.0047 108.919 59.6409C110.399 60.2772 111.242 61.6089 110.813 62.6003C110.384 63.5917 108.83 63.8728 107.35 63.2218C105.871 62.5707 105.086 61.2242 105.471 60.2772Z" fill="#7E40D6"/>
<path opacity="0.1" d="M110.71 59.2882C110.884 59.019 111.155 58.8272 111.466 58.7528C111.778 58.6784 112.106 58.727 112.382 58.8887C112.548 58.9115 112.705 58.9723 112.843 59.0661C112.98 59.1599 113.095 59.2843 113.176 59.4296C113.258 59.5749 113.305 59.7371 113.313 59.9035C113.322 60.0699 113.292 60.236 113.225 60.3888C113.159 60.5417 113.058 60.6771 112.931 60.7845C112.803 60.8919 112.653 60.9684 112.491 61.0079C112.329 61.0475 112.16 61.0491 111.998 61.0126C111.835 60.9761 111.683 60.9025 111.554 60.7975C111.247 60.7014 110.989 60.4915 110.832 60.2108C110.675 59.9301 110.631 59.5999 110.71 59.2882Z" fill="#7E40D6"/>
<path opacity="0.1" d="M111.552 61.9362C111.664 61.7701 111.835 61.6531 112.03 61.609C112.226 61.565 112.431 61.5974 112.603 61.6995C113.047 61.9066 113.298 62.3062 113.165 62.6317C113.049 62.7926 112.877 62.9044 112.683 62.9454C112.488 62.9865 112.286 62.9537 112.115 62.8536C111.671 62.7057 111.419 62.247 111.552 61.9362Z" fill="#7E40D6"/>
<path opacity="0.1" d="M129.324 61.9981C129.389 61.4988 129.609 61.0324 129.953 60.6644C130.296 60.2963 130.746 60.045 131.24 59.9458C131.734 59.8465 132.246 59.9043 132.705 60.1109C133.164 60.3176 133.547 60.6627 133.801 61.0981C134.054 61.5334 134.164 62.037 134.117 62.5383C134.069 63.0396 133.866 63.5134 133.535 63.8933C133.205 64.2732 132.764 64.5402 132.274 64.6567C131.784 64.7733 131.27 64.7336 130.804 64.5432C130.273 64.3974 129.82 64.0491 129.543 63.5731C129.267 63.0972 129.188 62.5316 129.324 61.9981V61.9981Z" fill="#7E40D6"/>
<path opacity="0.1" d="M128.629 65.8699C128.759 65.6124 128.982 65.4143 129.253 65.3166C129.524 65.2189 129.822 65.229 130.086 65.3448C130.35 65.4606 130.56 65.6733 130.671 65.9389C130.783 66.2046 130.788 66.503 130.686 66.7725C130.557 67.03 130.334 67.2281 130.063 67.3258C129.791 67.4235 129.493 67.4134 129.229 67.2976C128.965 67.1818 128.756 66.9692 128.644 66.7035C128.533 66.4378 128.527 66.1394 128.629 65.8699V65.8699Z" fill="#7E40D6"/>
</g>
<path d="M656.152 188.188C667.24 183.749 672.629 171.162 668.19 160.074C663.751 148.987 651.164 143.597 640.076 148.036C628.988 152.475 623.599 165.063 628.038 176.15C632.477 187.238 645.064 192.628 656.152 188.188Z" fill="#B5B1FD"/>
<g opacity="0.1">
<path opacity="0.1" d="M294.968 521.794C295.35 520.905 296.7 520.669 297.982 521.209C299.264 521.749 299.995 522.93 299.612 523.807C299.23 524.684 297.869 524.931 296.598 524.391C295.328 523.852 294.585 522.671 294.968 521.794Z" fill="#7E40D6"/>
<path opacity="0.1" d="M301.095 520.279C301.308 519.785 302.107 519.65 302.872 519.987C303.636 520.324 304.086 520.999 303.873 521.494C303.659 521.989 302.86 522.112 302.084 521.786C301.308 521.46 300.892 520.752 301.095 520.279Z" fill="#7E40D6"/>
<path opacity="0.1" d="M284.317 493.695C284.643 492.942 285.813 492.728 286.937 493.212C288.062 493.695 288.703 494.707 288.377 495.461C288.051 496.214 286.87 496.428 285.745 495.933C284.621 495.438 284.025 494.415 284.317 493.695Z" fill="#7E40D6"/>
<path opacity="0.1" d="M288.298 492.941C288.43 492.736 288.636 492.59 288.872 492.534C289.109 492.477 289.358 492.514 289.569 492.637C289.694 492.654 289.814 492.7 289.918 492.772C290.023 492.843 290.11 492.938 290.172 493.048C290.234 493.158 290.269 493.282 290.276 493.408C290.282 493.535 290.26 493.661 290.209 493.777C290.159 493.893 290.082 493.996 289.985 494.078C289.888 494.159 289.774 494.218 289.651 494.248C289.528 494.278 289.4 494.279 289.276 494.251C289.153 494.223 289.037 494.167 288.939 494.088C288.706 494.015 288.509 493.855 288.39 493.642C288.271 493.428 288.238 493.178 288.298 492.941Z" fill="#7E40D6"/>
<path opacity="0.1" d="M288.939 494.955C289.024 494.828 289.154 494.739 289.303 494.706C289.451 494.673 289.607 494.697 289.738 494.775C290.075 494.932 290.266 495.236 290.165 495.483C290.077 495.605 289.946 495.69 289.798 495.722C289.651 495.753 289.497 495.728 289.367 495.652C289.029 495.539 288.838 495.191 288.939 494.955Z" fill="#7E40D6"/>
<path opacity="0.1" d="M302.445 494.998C302.495 494.619 302.662 494.264 302.923 493.984C303.184 493.705 303.526 493.514 303.901 493.438C304.276 493.363 304.666 493.407 305.015 493.564C305.364 493.721 305.655 493.983 305.847 494.314C306.04 494.645 306.124 495.028 306.087 495.409C306.051 495.79 305.897 496.15 305.646 496.438C305.394 496.727 305.059 496.93 304.687 497.019C304.315 497.107 303.924 497.077 303.57 496.932C303.166 496.822 302.822 496.557 302.612 496.195C302.402 495.833 302.342 495.404 302.445 494.998V494.998Z" fill="#7E40D6"/>
<path opacity="0.1" d="M301.918 497.944C302.016 497.748 302.186 497.598 302.392 497.523C302.598 497.449 302.824 497.457 303.025 497.545C303.225 497.633 303.384 497.794 303.469 497.996C303.554 498.198 303.558 498.425 303.481 498.63C303.382 498.825 303.213 498.976 303.007 499.05C302.801 499.125 302.574 499.117 302.374 499.029C302.173 498.941 302.014 498.779 301.929 498.577C301.844 498.375 301.84 498.149 301.918 497.944V497.944Z" fill="#7E40D6"/>
</g>
<path d="M556.152 252.188C567.24 247.749 572.629 235.162 568.19 224.074C563.751 212.987 551.164 207.597 540.076 212.036C528.988 216.475 523.599 229.063 528.038 240.15C532.477 251.238 545.064 256.628 556.152 252.188Z" fill="#CFFFEB"/>
<g opacity="0.1">
<path opacity="0.1" d="M451.951 232.809C452.334 231.921 453.683 231.685 454.965 232.225C456.247 232.764 456.978 233.945 456.596 234.822C456.213 235.699 454.853 235.947 453.582 235.407C452.311 234.867 451.569 233.686 451.951 232.809Z" fill="#CFFFEB"/>
<path opacity="0.1" d="M458.078 231.295C458.292 230.8 459.09 230.665 459.855 231.003C460.62 231.34 461.07 232.015 460.856 232.51C460.642 233.004 459.844 233.128 459.068 232.802C458.292 232.476 457.876 231.767 458.078 231.295Z" fill="#CFFFEB"/>
<path opacity="0.1" d="M441.3 204.711C441.627 203.957 442.796 203.744 443.921 204.227C445.045 204.711 445.686 205.723 445.36 206.476C445.034 207.23 443.853 207.444 442.729 206.949C441.604 206.454 441.008 205.431 441.3 204.711Z" fill="#CFFFEB"/>
<path opacity="0.1" d="M445.281 203.956C445.413 203.752 445.619 203.606 445.856 203.549C446.092 203.493 446.342 203.53 446.552 203.653C446.677 203.67 446.797 203.716 446.902 203.787C447.006 203.859 447.093 203.953 447.155 204.064C447.217 204.174 447.253 204.297 447.259 204.424C447.266 204.55 447.243 204.677 447.193 204.793C447.142 204.909 447.065 205.012 446.969 205.093C446.872 205.175 446.757 205.233 446.634 205.263C446.511 205.293 446.383 205.295 446.26 205.267C446.136 205.239 446.021 205.183 445.922 205.103C445.689 205.03 445.493 204.871 445.373 204.657C445.254 204.444 445.221 204.193 445.281 203.956Z" fill="#CFFFEB"/>
<path opacity="0.1" d="M445.923 205.97C446.008 205.844 446.138 205.755 446.286 205.722C446.434 205.688 446.59 205.713 446.721 205.79C447.058 205.948 447.25 206.251 447.148 206.499C447.06 206.621 446.929 206.706 446.782 206.737C446.634 206.768 446.48 206.744 446.35 206.668C446.013 206.555 445.821 206.206 445.923 205.97Z" fill="#CFFFEB"/>
<path opacity="0.1" d="M459.428 206.014C459.478 205.634 459.645 205.28 459.906 205C460.167 204.72 460.509 204.529 460.885 204.454C461.26 204.378 461.649 204.422 461.998 204.579C462.347 204.736 462.638 204.999 462.831 205.33C463.023 205.661 463.107 206.043 463.071 206.424C463.035 206.805 462.88 207.165 462.629 207.454C462.378 207.743 462.043 207.946 461.67 208.034C461.298 208.123 460.907 208.093 460.553 207.948C460.149 207.837 459.806 207.572 459.595 207.211C459.385 206.849 459.325 206.419 459.428 206.014V206.014Z" fill="#CFFFEB"/>
<path opacity="0.1" d="M458.901 208.959C458.999 208.764 459.169 208.613 459.375 208.539C459.581 208.465 459.808 208.472 460.008 208.56C460.209 208.648 460.368 208.81 460.453 209.012C460.538 209.214 460.542 209.441 460.464 209.645C460.366 209.841 460.196 209.992 459.99 210.066C459.784 210.14 459.557 210.132 459.357 210.044C459.156 209.956 458.997 209.795 458.912 209.593C458.828 209.391 458.824 209.164 458.901 208.959V208.959Z" fill="#CFFFEB"/>
</g>
<path d="M314.384 145.496C280.333 170.694 266.645 213.415 263.454 234.798C263.152 236.821 261.444 238.354 259.398 238.354H234.14C233.551 238.354 232.97 238.484 232.437 238.735L208.507 249.996C205.803 251.268 202.721 249.203 202.942 246.223C209.115 163.087 279.229 144.324 314.384 145.496Z" fill="#B5B1FD"/>
<path d="M467.415 252.651C454.249 292.913 418.029 319.382 398.745 329.157C396.92 330.082 396.005 332.186 396.65 334.127L404.62 358.095C404.806 358.654 404.866 359.247 404.796 359.832L401.661 386.092C401.307 389.06 404.239 391.333 406.997 390.182C483.938 358.093 479.62 285.641 467.415 252.651Z" fill="#B5B1FD"/>
<path d="M503.706 139.184C445.107 133.775 420.164 96.8118 417.159 74.2734C296.338 137.863 268.904 226.833 270.098 265.744C270.143 267.219 269.427 268.589 268.174 269.367L247.051 282.477C245.343 283.537 244.676 285.704 245.598 287.49C264.364 323.854 317.441 351.936 345.647 363.076C347.772 363.916 350.12 362.744 350.808 360.565L359.689 332.443C360.107 331.117 361.197 330.106 362.539 329.745C450.5 306.091 493.274 193.133 503.706 139.184Z" fill="#7E40D6"/>
<path d="M422.568 91.4029C386.507 111.597 345.637 147.899 329.71 163.526C347.741 129.628 396.424 95.9105 418.962 83.2891L422.568 91.4029Z" fill="#B5B1FD"/>
<path d="M517.261 37.8485L505.756 128.366C450.024 123.077 430.081 86.4945 427.076 68.8645L511.757 33.6507C514.595 32.4705 517.648 34.7993 517.261 37.8485Z" fill="#7E40D6"/>
<path d="M501.636 44.2241C491.805 48.9553 450.497 67.8186 429.779 77.8806L434.284 85.9948C438.484 83.0249 482.189 63.5855 504.123 53.8554C504.555 53.6641 504.779 53.2037 504.682 52.7419L503.039 44.9335C502.904 44.2938 502.225 43.9406 501.636 44.2241Z" fill="#B5B1FD"/>
<circle cx="405.439" cy="182.459" r="54.0921" fill="#CFFFEB"/>
<circle cx="405.594" cy="182" r="40" fill="white"/>
<path d="M320.164 395.343L316.834 395.963L316.094 399.473L315.344 395.963L312.014 395.343L315.334 394.533L316.094 391.223L316.854 394.533L320.164 395.343Z" fill="white"/>
<path d="M318.374 364.872L315.044 365.482L314.304 369.002L313.564 365.482L310.224 364.872L313.544 364.062L314.304 360.742L315.064 364.062L318.374 364.872Z" fill="white"/>
<path d="M328.044 402.941C327.833 402.999 327.646 403.125 327.512 403.299C327.379 403.473 327.307 403.687 327.307 403.906C327.307 404.126 327.379 404.339 327.512 404.514C327.646 404.688 327.833 404.814 328.044 404.871C328.256 404.814 328.443 404.688 328.577 404.514C328.71 404.339 328.782 404.126 328.782 403.906C328.782 403.687 328.71 403.473 328.577 403.299C328.443 403.125 328.256 402.999 328.044 402.941V402.941Z" fill="white"/>
<path d="M326.324 397.91C326.156 397.93 326.002 398.011 325.89 398.138C325.779 398.264 325.717 398.427 325.717 398.595C325.717 398.764 325.779 398.927 325.89 399.053C326.002 399.179 326.156 399.26 326.324 399.28C326.491 399.26 326.646 399.179 326.757 399.053C326.869 398.927 326.931 398.764 326.931 398.595C326.931 398.427 326.869 398.264 326.757 398.138C326.646 398.011 326.491 397.93 326.324 397.91V397.91Z" fill="white"/>
<path d="M310.224 375.652C309.755 375.687 309.317 375.897 308.997 376.241C308.678 376.585 308.5 377.038 308.5 377.507C308.5 377.977 308.678 378.429 308.997 378.773C309.317 379.118 309.755 379.328 310.224 379.362C310.692 379.328 311.13 379.118 311.45 378.773C311.77 378.429 311.947 377.977 311.947 377.507C311.947 377.038 311.77 376.585 311.45 376.241C311.13 375.897 310.692 375.687 310.224 375.652V375.652Z" fill="white"/>
<path opacity="0.6" d="M293.112 354.436C274.152 375.477 258.928 400.091 250.086 427.173C240.891 454.468 239.145 483.721 245.028 511.916C248.197 526.162 253.449 539.862 260.615 552.575C267.953 565.515 277.119 577.328 287.83 587.65C298.78 598.145 311.029 607.194 324.278 614.576C337.76 622.077 351.979 628.169 366.709 632.755C351.34 629.89 336.309 625.44 321.857 619.477C307.221 613.402 293.429 605.467 280.82 595.869C254.693 576.015 235.02 548.879 224.273 517.874C213.453 486.524 212.019 451.939 218.721 419.095C225.423 386.252 239.877 354.959 259.326 327.486L293.112 354.436Z" fill="#CFFFEB"/>
<circle cx="299.015" cy="220.015" r="9.01535" fill="#ECECEC"/>
<circle cx="299.015" cy="260.015" r="9.01535" fill="#ECECEC"/>
</svg>
